<svg xmlns="http://www.w3.org/2000/svg" viewBox="0 0 64 64" width="48" height="48" fill="none">
  <defs>
    <linearGradient id="sunGrad" x1="32" y1="12" x2="32" y2="40" gradientUnits="userSpaceOnUse">
      <stop offset="0%" stop-color="#FFD54F" />
      <stop offset="100%" stop-color="#FFB300" />
    </linearGradient>
    <linearGradient id="cloudGrad" x1="24" y1="32" x2="40" y2="52" gradientUnits="userSpaceOnUse">
      <stop offset="0%" stop-color="#90CAF9" />
      <stop offset="100%" stop-color="#42A5F5" />
    </linearGradient>
  </defs>
  <!-- Sun -->
  <circle cx="30" cy="22" r="10" fill="url(#sunGrad)" />
  <g stroke="#FFB300" stroke-width="4" stroke-linecap="round">
    <line x1="30" y1="4" x2="30" y2="12" />
    <line x1="30" y1="32" x2="30" y2="40" />
    <line x1="14" y1="22" x2="22" y2="22" />
    <line x1="38" y1="22" x2="46" y2="22" />
    <line x1="18" y1="10" x2="24" y2="16" />
    <line x1="42" y1="10" x2="36" y2="16" />
    <line x1="18" y1="34" x2="24" y2="28" />
    <line x1="42" y1="34" x2="36" y2="28" />
  </g>
  <!-- Cloud -->
  <path d="M18 38c0-6 5-10 11-10 2 0 4 .5 5.5 1.5C37 25 43 26 46 30c3 4 2.5 9-1.5 12H18z" fill="url(#cloudGrad)" />
  <!-- Rain drops -->
  <g fill="#4FC3F7" opacity="0.9">
    <path d="M22 46c0 2 2 4 2 4s2-2 2-4-2-4-2-4-2 2-2 4z" />
    <path d="M30 46c0 2 2 4 2 4s2-2 2-4-2-4-2-4-2 2-2 4z" />
    <path d="M38 46c0 2 2 4 2 4s2-2 2-4-2-4-2-4-2 2-2 4z" />
  </g>
</svg>
